<svg width="640" height="564" viewBox="0 0 640 564" fill="none" xmlns="http://www.w3.org/2000/svg">
<path d="M51.774 138.304C51.4809 138.304 51.1828 138.253 50.8914 138.145C48.1401 137.148 45.3995 136.023 42.7472 134.797C41.4521 134.201 40.8869 132.666 41.4849 131.37C41.9207 130.427 42.855 129.871 43.8312 129.871C44.027 129.871 44.2247 129.894 44.4203 129.938C44.5859 129.978 44.7506 130.034 44.9118 130.107C47.4319 131.272 50.0363 132.341 52.6515 133.291C53.9924 133.777 54.6853 135.258 54.1994 136.599C53.8188 137.647 52.8288 138.304 51.774 138.304Z" fill="url(#paint0_linear)"/>
<path d="M274.563 45.39L272.219 45.3198C271.691 44.7139 271.695 43.7945 272.252 43.1933C274.081 41.2142 275.803 39.1042 277.373 36.9169C277.684 36.4817 278.175 36.2525 278.671 36.2525C278.793 36.2525 278.914 36.2665 279.036 36.2946C279.233 36.3414 279.424 36.4256 279.6 36.5496C280.316 37.0642 280.477 38.0608 279.965 38.7766C278.32 41.0692 276.512 43.2845 274.594 45.3595C274.584 45.3689 274.573 45.3806 274.563 45.39ZM283.076 32.4089C282.819 32.4089 282.557 32.3458 282.316 32.2171C281.541 31.796 281.256 30.8275 281.677 30.0532C282.959 27.6928 284.11 25.2225 285.097 22.7123C285.345 22.0854 285.944 21.7018 286.58 21.7018C286.702 21.7018 286.824 21.7158 286.945 21.7438C287.02 21.7626 287.093 21.7836 287.165 21.8117C287.984 22.1369 288.389 23.0609 288.066 23.882C287.032 26.5114 285.825 29.1011 284.48 31.5761C284.19 32.1095 283.642 32.4089 283.076 32.4089ZM289.091 16.988C288.974 16.988 288.857 16.9763 288.742 16.9529C287.89 16.7307 287.378 15.8604 287.598 15.0089C287.715 14.5527 287.83 14.0942 287.937 13.638C288.447 11.4765 288.852 9.26114 289.142 7.05513C289.247 6.25274 289.933 5.66788 290.723 5.66788C290.791 5.66788 290.859 5.67255 290.929 5.68191C290.985 5.68893 291.039 5.69831 291.091 5.71001C291.877 5.89716 292.412 6.65275 292.305 7.46918C292.003 9.78045 291.577 12.1034 291.042 14.3726C290.929 14.8498 290.81 15.3271 290.686 15.8043C290.496 16.5388 289.799 16.988 289.091 16.988Z" fill="url(#paint1_linear)"/>
<path d="M3.70418 434.451C13.0031 340.655 36.2728 107.694 41.3527 73.642C47.7374 30.846 100.18 40.29 100.18 40.29L111.41 473.373H38.2893C28.4622 473.373 19.0907 469.136 12.5046 461.709C5.91814 454.281 2.71721 444.407 3.70418 434.451Z" fill="url(#paint2_linear)"/>
<path d="M81.7022 495.178C67.69 495.178 56.2539 483.834 56.2113 469.754L55.0035 71.9763L54.9874 66.6332C54.9455 52.8942 65.2033 41.5952 78.4 39.9039C79.5259 39.7588 80.6729 39.684 81.8372 39.684C82.1067 39.684 82.3787 39.6886 82.6503 39.6956L272.219 45.3194L274.563 45.3896L592.938 54.8359C593.112 54.8406 593.282 54.8476 593.453 54.8546C612.605 55.6897 627.877 71.2557 628.284 90.4805L629.449 145.366L632.225 276.362L635.026 408.353C625.376 339.494 609.931 205.81 616.264 91.6221C616.61 85.3878 611.779 80.0844 605.538 79.8856L92.9495 63.5336C92.8106 63.5289 92.6712 63.5266 92.5331 63.5266C85.6894 63.5266 80.0263 68.9375 79.7652 75.8245C77.5854 133.309 69.4663 370.025 80.0885 454.171C80.7283 459.241 85.0496 463.021 90.1426 463.021C90.1952 463.021 90.2481 463.019 90.3009 463.019L628.162 454.775C630.543 454.74 632.733 454.019 634.565 452.817C630.218 470.554 614.402 483.883 595.275 484.29L501.807 486.272L82.2541 495.171C82.0695 495.175 81.8858 495.178 81.7022 495.178Z" fill="url(#paint3_linear)"/>
<path d="M90.1427 463.021C85.0497 463.021 80.7285 459.241 80.0887 454.171C69.4664 370.025 77.5856 133.309 79.7654 75.8246C80.0264 68.9376 85.6895 63.5267 92.5333 63.5267C92.6713 63.5267 92.8107 63.5291 92.9497 63.5337L605.538 79.8857C611.78 80.0846 616.61 85.3879 616.264 91.6223C609.932 205.81 625.376 339.494 635.026 408.353C636.93 421.947 638.61 433.007 639.852 440.9C640.617 445.766 638.357 450.326 634.565 452.817C632.733 454.019 630.544 454.74 628.162 454.775L90.3011 463.019C90.2482 463.019 90.1953 463.021 90.1427 463.021ZM99.7537 72.8771C93.1672 72.8771 87.7161 78.0821 87.4651 84.7118C85.3672 140.03 77.554 367.833 87.7764 448.812C88.3922 453.69 92.551 457.327 97.4515 457.327C97.5023 457.327 97.5526 457.327 97.6036 457.325L615.212 449.392C622.241 449.285 627.552 442.987 626.459 436.039C619.214 389.968 596.464 231.494 603.763 99.9128C604.095 93.9124 599.447 88.8104 593.439 88.6185L100.153 72.8841C100.02 72.8794 99.8863 72.8771 99.7537 72.8771Z" fill="url(#paint4_linear)"/>
<path d="M615.211 449.392C622.241 449.285 627.552 442.987 626.459 436.039C619.214 389.968 596.464 231.494 603.763 99.9129C604.095 93.9125 599.447 88.8104 593.439 88.6186L100.153 72.8842C93.3891 72.6666 87.7211 77.9488 87.465 84.7119C85.3671 140.03 77.5539 367.833 87.7763 448.812C88.3984 453.741 92.6368 457.402 97.6035 457.325L615.211 449.392Z" fill="#91B3FA"/>
<path d="M266.626 217.865C261.346 217.865 257.027 213.645 256.917 208.358L256.124 171.008C256.007 165.543 260.415 161.089 265.826 161.089C265.973 161.089 266.118 161.091 266.265 161.098L302.743 162.715C307.857 162.942 311.915 167.097 312.025 172.215L312.779 207.74C312.893 213.163 308.544 217.629 303.122 217.659L266.682 217.865C266.663 217.865 266.644 217.865 266.626 217.865Z" fill="#E0EAFE"/>
<path d="M402.932 217.568C397.65 217.568 393.332 213.345 393.219 208.058L392.546 176.292C392.431 170.83 396.834 166.374 402.249 166.374C402.369 166.374 402.488 166.376 402.607 166.378L439.078 167.688C444.224 167.873 448.332 172.042 448.44 177.191L449.083 207.441C449.198 212.863 444.849 217.329 439.426 217.36L402.986 217.568C402.967 217.568 402.949 217.568 402.932 217.568Z" fill="#E0EAFE"/>
<path d="M408.306 430.397C402.572 430.397 397.84 425.809 397.716 420.019L397.004 386.429C396.878 380.529 401.597 375.663 407.499 375.605L442.161 375.27C442.196 375.27 442.233 375.27 442.268 375.27C448.026 375.27 452.739 379.874 452.863 385.645L453.551 418.104C453.673 423.87 449.162 428.677 443.401 428.921L408.762 430.387C408.61 430.392 408.458 430.397 408.306 430.397Z" fill="#E0EAFE"/>
<path d="M476.224 427.522C470.588 427.522 465.935 423.012 465.814 417.322L465.142 385.584C465.018 379.785 469.657 375.004 475.456 374.947L510.484 374.606C510.516 374.606 510.551 374.606 510.584 374.606C516.245 374.606 520.88 379.132 521.001 384.803L521.649 415.399C521.768 421.068 517.338 425.791 511.674 426.029L476.671 427.512C476.521 427.517 476.371 427.522 476.224 427.522Z" fill="#E0EAFE"/>
<path d="M473.978 285.014C467.905 285.014 462.906 280.155 462.775 274.04L462.223 247.987C462.09 241.703 467.147 236.538 473.431 236.538C473.438 236.538 473.445 236.538 473.452 236.538L506.9 236.596C512.991 236.608 517.96 241.481 518.089 247.572L518.617 272.47C518.748 278.611 513.913 283.713 507.775 283.914L474.352 285.007C474.226 285.011 474.102 285.014 473.978 285.014Z" fill="#E0EAFE"/>
<path d="M474.799 359.95C469.131 359.95 464.502 355.419 464.382 349.75L463.535 309.902C463.414 304.196 467.908 299.454 473.611 299.267L507.819 298.149C507.943 298.144 508.067 298.142 508.191 298.142C514.264 298.142 519.266 303.001 519.394 309.116L520.248 349.306C520.37 355.145 515.672 359.945 509.831 359.945L474.799 359.95Z" fill="#E0EAFE"/>
<path d="M371.279 217.746L334.839 217.952C329.535 217.982 325.187 213.748 325.074 208.445L324.34 173.843C324.22 168.262 328.822 163.728 334.399 163.929L370.872 165.239C376.016 165.424 380.124 169.593 380.234 174.742L380.935 207.827C381.05 213.25 376.701 217.715 371.279 217.746Z" fill="url(#paint5_linear)"/>
<path d="M406.823 359.957C401.054 359.957 396.345 355.346 396.223 349.582L395.432 312.311C395.308 306.505 399.879 301.681 405.683 301.492L440.329 300.357C440.446 300.353 440.565 300.35 440.682 300.35C446.423 300.35 451.151 304.945 451.273 310.728L452.089 349.128C452.215 355.068 447.434 359.952 441.492 359.952L406.823 359.957Z" fill="#E0EAFE"/>
<path d="M334.661 289.575C330.305 289.575 326.721 286.092 326.628 281.706L325.839 244.494C325.743 239.988 329.369 236.285 333.875 236.285C333.882 236.285 333.887 236.285 333.891 236.285L373.684 236.357C378.051 236.365 381.614 239.859 381.708 244.225L382.468 280.063C382.561 284.466 379.094 288.125 374.692 288.27L334.928 289.571C334.839 289.573 334.75 289.575 334.661 289.575Z" fill="#E0EAFE"/>
<path d="M268.572 291.737C263.098 291.737 258.592 287.36 258.475 281.846L257.725 246.485C257.605 240.821 262.165 236.166 267.826 236.166C267.833 236.166 267.84 236.166 267.845 236.166L303.508 236.229C308.998 236.241 313.476 240.632 313.593 246.12L314.316 280.251C314.435 285.786 310.077 290.385 304.544 290.565L268.909 291.732C268.797 291.734 268.684 291.737 268.572 291.737Z" fill="#E0EAFE"/>
<path d="M402.769 287.346C398.413 287.346 394.829 283.863 394.735 279.476L393.996 244.618C393.9 240.112 397.529 236.407 402.034 236.407C402.039 236.407 402.043 236.407 402.048 236.407L441.843 236.479C446.21 236.489 449.773 239.981 449.867 244.349L450.575 277.834C450.669 282.237 447.202 285.895 442.799 286.041L403.035 287.341C402.946 287.344 402.858 287.346 402.769 287.346Z" fill="#E0EAFE"/>
<path d="M338.666 359.964C332.899 359.964 328.19 355.355 328.069 349.589L327.325 314.541C327.201 308.734 331.772 303.911 337.576 303.721L372.221 302.587C372.338 302.582 372.455 302.58 372.572 302.58C378.313 302.58 383.043 307.174 383.165 312.957L383.932 349.135C384.058 355.074 379.277 359.959 373.335 359.959L338.666 359.964Z" fill="#E0EAFE"/>
<path d="M269.323 359.971C264.216 359.973 260.045 355.889 259.938 350.784L259.189 315.57C259.081 310.428 263.128 306.157 268.268 305.988L305.34 304.776C305.445 304.772 305.55 304.772 305.653 304.772C310.736 304.772 314.924 308.837 315.031 313.958L315.803 350.382C315.916 355.643 311.682 359.966 306.42 359.969L269.323 359.971Z" fill="#E0EAFE"/>
<path d="M474.743 216.691C467.421 216.691 461.435 210.837 461.28 203.508L460.796 180.69C460.651 173.944 466.09 168.437 472.783 168.437C472.928 168.437 473.075 168.439 473.223 168.444L504.001 169.55C510.984 169.801 516.559 175.457 516.706 182.445L517.111 201.499C517.286 209.717 510.696 216.487 502.476 216.534L474.82 216.691C474.795 216.691 474.769 216.691 474.743 216.691Z" fill="#E0EAFE"/>
<path d="M544.315 424.637C538.682 424.637 534.029 420.129 533.91 414.44L533.299 385.727C533.168 379.486 538.158 374.339 544.4 374.278L556.45 374.161C556.515 374.161 556.583 374.159 556.648 374.159C565.713 374.159 573.094 380.178 573.253 387.746L573.721 409.804C573.882 417.362 566.773 423.697 557.701 424.081L544.767 424.628C544.615 424.635 544.465 424.637 544.315 424.637Z" fill="#E0EAFE"/>
<path d="M146.564 441.466C137.545 441.466 130.13 435.475 129.971 427.882L129.217 392.439C129.054 384.667 136.556 378.234 145.895 378.143L169.587 377.914C169.622 377.914 169.658 377.914 169.69 377.914C175.457 377.914 180.175 382.522 180.297 388.298L181.174 429.627C181.296 435.396 176.783 440.208 171.017 440.451L147.429 441.45C147.139 441.462 146.851 441.466 146.564 441.466Z" fill="#E0EAFE"/>
<path d="M543.73 359.94C537.629 359.94 532.649 355.065 532.52 348.966L531.662 308.456C531.531 302.315 536.366 297.213 542.505 297.014L554.342 296.626C554.564 296.619 554.788 296.614 555.011 296.614C564.043 296.614 571.447 302.615 571.608 310.201L572.359 345.642C572.528 353.479 564.904 359.938 555.49 359.94H543.73Z" fill="#E0EAFE"/>
<path d="M539.414 282.873C534.822 282.873 531.04 279.2 530.941 274.573L530.321 245.315C530.221 240.561 534.048 236.655 538.799 236.655C538.804 236.655 538.809 236.655 538.813 236.655L553.764 236.683C562.831 236.697 570.177 242.721 570.338 250.267L570.715 268.098C570.876 275.722 563.655 282.085 554.501 282.384L539.697 282.868C539.602 282.873 539.508 282.873 539.414 282.873Z" fill="#E0EAFE"/>
<path d="M142.11 156.553L165.87 157.407C171.223 157.599 175.497 161.933 175.609 167.291L176.475 208.112C176.596 213.752 172.072 218.401 166.429 218.431L141.964 218.569C132.839 218.62 125.402 212.58 125.241 204.984L124.518 170.837C124.347 162.762 132.422 156.204 142.11 156.553Z" fill="#7D97F4"/>
<path d="M340.212 433.279C334.479 433.279 329.746 428.691 329.622 422.904L328.862 387.091C328.738 381.191 333.456 376.323 339.358 376.267L374.02 375.93C374.056 375.93 374.091 375.93 374.126 375.93C379.883 375.93 384.599 380.533 384.721 386.305L385.458 420.988C385.579 426.752 381.069 431.559 375.307 431.803L340.668 433.269C340.516 433.274 340.364 433.279 340.212 433.279Z" fill="#E0EAFE"/>
<path d="M143.478 295.826C134.446 295.826 127.042 289.825 126.88 282.239L126.202 250.237C126.036 242.4 133.662 235.941 143.073 235.941C143.085 235.941 143.097 235.941 143.108 235.941L167.192 235.983C172.682 235.992 177.16 240.386 177.277 245.874L178.1 284.709C178.217 290.244 173.861 294.841 168.329 295.023L144.147 295.814C143.925 295.821 143.7 295.826 143.478 295.826Z" fill="#E0EAFE"/>
<path d="M144.854 359.985C135.772 359.987 128.401 353.959 128.242 346.4L127.774 324.343C127.613 316.721 134.834 310.356 143.986 310.056L169.124 309.233C169.227 309.231 169.332 309.228 169.435 309.228C174.521 309.228 178.706 313.296 178.816 318.417L179.495 350.396C179.605 355.657 175.373 359.983 170.109 359.983L144.854 359.985Z" fill="#E0EAFE"/>
<path d="M201.168 359.98C196.062 359.98 191.891 355.898 191.783 350.791L191.081 317.8C190.974 312.658 195.021 308.386 200.16 308.218L237.232 307.006C237.337 307.001 237.44 306.999 237.545 306.999C242.629 306.999 246.814 311.067 246.924 316.188L247.649 350.389C247.761 355.65 243.527 359.976 238.266 359.976L201.168 359.98Z" fill="#E0EAFE"/>
<path d="M204.032 439.043C198.294 439.043 193.556 434.451 193.435 428.659L192.581 388.422C192.455 382.518 197.178 377.645 203.085 377.589L237.73 377.252C237.763 377.252 237.8 377.252 237.833 377.252C243.597 377.252 248.316 381.86 248.44 387.636L249.268 426.743C249.392 432.514 244.877 437.324 239.11 437.569L204.49 439.034C204.336 439.041 204.184 439.043 204.032 439.043Z" fill="#E0EAFE"/>
<path d="M538.008 216.333C533.398 216.333 529.629 212.646 529.531 208.033L528.925 179.416C528.822 174.646 532.665 170.755 537.396 170.755C537.498 170.755 537.601 170.758 537.707 170.76L553.062 171.312C561.853 171.628 568.797 177.558 568.951 184.885L569.314 201.955C569.477 209.752 561.924 216.197 552.555 216.251L538.058 216.333C538.041 216.333 538.022 216.333 538.008 216.333Z" fill="#E0EAFE"/>
<path d="M272.128 436.161C266.387 436.161 261.652 431.569 261.528 425.776L260.721 387.76C260.597 381.855 265.318 376.985 271.225 376.926L305.288 376.596C305.326 376.596 305.363 376.596 305.398 376.596C311.483 376.596 316.463 381.462 316.594 387.556L317.364 423.861C317.485 429.632 312.971 434.441 307.204 434.685L272.584 436.151C272.432 436.156 272.278 436.161 272.128 436.161Z" fill="#E0EAFE"/>
<path d="M198.862 218.249C193.369 218.249 188.878 213.858 188.761 208.358L187.923 168.886C187.804 163.204 192.384 158.567 198.02 158.567C198.141 158.567 198.265 158.57 198.389 158.574L234.078 159.856C239.431 160.048 243.703 164.385 243.817 169.74L244.622 207.729C244.744 213.369 240.219 218.015 234.577 218.048L198.92 218.249C198.902 218.249 198.881 218.249 198.862 218.249Z" fill="#E0EAFE"/>
<path d="M200.462 293.966C194.99 293.966 190.485 289.587 190.368 284.075L189.568 246.361C189.446 240.697 194.005 236.042 199.669 236.042C199.676 236.042 199.681 236.042 199.688 236.042L235.349 236.107C240.841 236.117 245.319 240.507 245.434 245.998L246.208 282.48C246.325 288.015 241.969 292.614 236.437 292.794L200.799 293.962C200.687 293.964 200.574 293.966 200.462 293.966Z" fill="#E0EAFE"/>
<path d="M556.51 140.538L554.868 152.567C554.342 156.42 551.092 159.316 547.204 159.4L546.636 159.412C542.273 159.503 538.661 156.041 538.568 151.678L538.308 139.364C538.205 134.591 542.327 130.82 547.073 131.342L549.544 131.613C553.963 132.1 557.109 136.133 556.51 140.538Z" fill="white"/>
<path d="M500.67 137.441L499.028 149.47C498.504 153.323 495.254 156.221 491.366 156.303L490.798 156.315C486.435 156.408 482.823 152.946 482.73 148.581L482.47 136.266C482.367 131.494 486.489 127.723 491.233 128.245L493.706 128.516C498.122 129.003 501.271 133.036 500.67 137.441Z" fill="white"/>
<path d="M431.968 138.386L430.326 150.417C429.802 154.268 426.55 157.166 422.665 157.248L422.096 157.26C417.733 157.353 414.121 153.891 414.028 149.528L413.766 137.214C413.665 132.439 417.787 128.668 422.531 129.19L425.004 129.464C429.421 129.95 432.57 133.983 431.968 138.386Z" fill="white"/>
<path d="M365.033 135.389L363.39 147.418C362.866 151.271 359.617 154.17 355.729 154.251L355.161 154.263C350.798 154.357 347.186 150.892 347.092 146.529L346.833 134.215C346.73 129.443 350.851 125.672 355.596 126.193L358.068 126.465C362.485 126.951 365.634 130.984 365.033 135.389Z" fill="white"/>
<path d="M296.284 126.647L294.642 138.676C294.115 142.529 290.866 145.427 286.978 145.509L286.41 145.521C282.047 145.614 278.435 142.15 278.343 137.787L278.081 125.473C277.981 120.7 282.1 116.929 286.847 117.451L289.317 117.722C293.736 118.209 296.883 122.242 296.284 126.647Z" fill="white"/>
<path d="M223.453 128.191L221.811 140.222C221.285 144.073 218.035 146.971 214.15 147.053L213.581 147.065C209.218 147.159 205.604 143.696 205.513 139.333L205.251 127.019C205.15 122.247 209.272 118.473 214.016 118.995L216.487 119.269C220.906 119.755 224.054 123.788 223.453 128.191Z" fill="white"/>
<path d="M161.98 126.904L160.338 138.933C159.811 142.786 156.562 145.685 152.676 145.766L152.108 145.778C147.745 145.872 144.131 142.409 144.039 138.044L143.777 125.73C143.677 120.958 147.799 117.187 152.543 117.708L155.013 117.98C159.432 118.466 162.581 122.499 161.98 126.904Z" fill="white"/>
<path d="M54.9874 466.699C55.6978 466.699 56.2761 466.126 56.281 465.412L57.8531 238.423C57.858 237.71 57.2827 237.125 56.5681 237.12H56.562C55.8487 237.12 55.2704 237.693 55.2653 238.404L53.6933 465.396C53.6883 466.109 54.2636 466.692 54.9782 466.699H54.9874Z" fill="white"/>
<path d="M56.9205 187.589C57.6309 187.589 58.209 187.014 58.2141 186.303L58.7632 107.025C58.7681 106.311 58.1928 105.729 57.4782 105.724H57.4721C56.7586 105.724 56.1805 106.297 56.1754 107.008L55.6264 186.286C55.6217 187 56.1967 187.582 56.9114 187.587L56.9205 187.589Z" fill="#91B3FA"/>
<path d="M528.922 107.198C528.922 114.836 535.115 121.028 542.753 121.028C550.391 121.028 556.583 114.836 556.583 107.198C556.583 99.5599 550.391 93.3676 542.753 93.3676C535.115 93.3676 528.922 99.5599 528.922 107.198Z" fill="url(#paint6_linear)"/>
<path d="M415.602 106.133C415.602 113.771 421.795 119.963 429.432 119.963C437.07 119.963 443.263 113.771 443.263 106.133C443.263 98.4952 437.07 92.303 429.432 92.303C421.795 92.303 415.602 98.4952 415.602 106.133Z" fill="url(#paint7_linear)"/>
<path d="M301.22 102.409C301.22 110.047 307.412 116.239 315.05 116.239C322.688 116.239 328.88 110.047 328.88 102.409C328.88 94.7711 322.688 88.5789 315.05 88.5789C307.412 88.5789 301.22 94.7711 301.22 102.409Z" fill="url(#paint8_linear)"/>
<path d="M187.9 97.0895C187.9 104.727 194.092 110.92 201.73 110.92C209.37 110.92 215.56 104.727 215.56 97.0895C215.56 89.4515 209.37 83.2593 201.73 83.2593C194.092 83.2593 187.9 89.4515 187.9 97.0895Z" fill="url(#paint9_linear)"/>
<path d="M191.212 1.25353C214.486 6.33224 212.29 67.5622 210.418 92.4224C209.976 98.2708 205.103 102.783 199.239 102.783C197.61 102.783 196.057 102.082 194.969 100.87C193.882 99.658 193.362 98.0369 193.535 96.418C195.547 77.6284 199.823 23.5217 182.69 20.628C182.69 20.628 170.399 18.4523 168.331 42.2599H155.034C155.034 42.2599 161.952 -5.13054 191.212 1.25353Z" fill="url(#paint10_linear)"/>
<path d="M304.53 4.40231C327.804 9.48103 325.61 70.7321 323.736 95.5923C323.296 101.441 318.424 105.965 312.556 105.965C310.928 105.965 309.377 105.27 308.289 104.056C307.202 102.844 306.682 101.225 306.855 99.6066C308.865 80.8193 313.144 26.6682 296.01 23.7744C296.01 23.7744 283.719 22.0761 281.651 45.3642H268.355C268.355 45.3642 275.27 -1.98176 304.53 4.40231Z" fill="url(#paint11_linear)"/>
<path d="M417.85 7.56499C441.125 12.6437 438.928 73.9112 437.056 98.769C436.614 104.62 431.744 109.149 425.877 109.149C424.248 109.149 422.695 108.459 421.607 107.244C420.52 106.033 420 104.416 420.173 102.797C422.185 84.0077 426.462 29.8309 409.328 26.9371C409.328 26.9371 397.044 25.5545 394.976 48.962L381.672 48.5012C381.672 48.5012 388.59 1.18092 417.85 7.56499Z" fill="url(#paint12_linear)"/>
<path d="M531.17 11.2237C554.442 16.3024 552.248 77.6026 550.374 102.46C549.934 108.311 545.061 112.856 539.194 112.856C537.566 112.856 536.015 112.173 534.927 110.962C533.84 109.75 533.32 108.136 533.493 106.517C535.503 87.7272 539.782 33.4872 522.648 30.5934C522.648 30.5934 510.357 28.8038 508.289 52.092H494.992C494.992 52.092 501.908 4.8396 531.17 11.2237Z" fill="url(#paint13_linear)"/>
<path d="M75.2485 236.636L87.9953 277.06C87.9953 277.06 102.788 287.961 121.65 277.556C124.548 275.97 127.547 273.883 130.584 271.162C153.476 250.733 138.289 221.009 138.289 221.009C138.289 221.009 155.76 213.961 147.998 199.129C147.462 198.116 145.972 198.275 145.654 199.387C144.524 203.478 141.763 210.625 135.985 213.168C135.688 213.287 135.41 213.425 135.152 213.544C134.893 212.77 134.893 211.858 135.508 210.882C137.316 208.143 134.06 204.391 134.06 204.391C134.06 204.391 133.842 207.708 131.339 209.771C129.175 211.579 128.144 215.549 129.613 218.824C132.75 230.977 137.433 247.039 119.189 258.794C117.322 259.985 115.375 260.72 113.389 261.038C95.9575 263.955 75.2485 236.636 75.2485 236.636Z" fill="url(#paint14_linear)"/>
<path d="M75.2485 236.636L87.9953 277.06C87.9953 277.06 102.788 287.961 121.65 277.556L113.389 261.038C95.9575 263.955 75.2485 236.636 75.2485 236.636Z" fill="url(#paint15_linear)"/>
<path d="M71.4271 187.058C71.4271 187.058 78.6442 161.919 51.6391 168.832C51.6391 168.832 38.4085 166.989 38.0309 179.446C38.0309 179.446 32.3124 188.064 32.0712 198.684C32.0712 198.684 6.07101 205.405 1.96873 215.823C-2.23015 226.485 0.0993636 243.424 10.775 246.346C10.775 246.346 2.28783 250.861 6.58193 260.502C10.8765 270.142 31.626 276.524 43.5092 264.394C43.5092 264.394 78.2222 268.154 76.9545 243.726C76.9545 243.726 92.8057 232.956 75.4251 213.151C58.0447 193.348 71.4271 187.058 71.4271 187.058Z" fill="url(#paint16_linear)"/>
<path d="M73.5407 232.189C68.0825 230.551 52.1918 227.531 37.0762 241.481C34.5125 243.846 33.4651 247.441 34.3794 250.807C38.4391 265.754 49.1507 309.911 39.7587 329.019C39.7587 329.019 56.3098 347.263 74.3667 332.558C74.3667 332.558 82.4681 297.248 93.0796 281.748C100.406 271.047 81.3976 241.562 76.5884 234.439C75.8601 233.361 74.7868 232.563 73.5407 232.189Z" fill="url(#paint17_linear)"/>
<path d="M58.471 202.493C58.471 202.493 50.3995 225.325 49.7925 235.396C49.7925 235.396 58.7131 239.452 67.1193 232.608C67.1193 232.608 68.0012 209.801 69.2755 205.719L58.471 202.493Z" fill="url(#paint18_linear)"/>
<path d="M71.414 179.939C71.414 179.939 93.2146 208.98 80.8001 217.856C68.3852 226.733 52.8667 206.096 52.8667 206.096C52.8667 206.096 47.5894 190.045 52.5813 184.44C57.573 178.835 71.414 179.939 71.414 179.939Z" fill="url(#paint19_linear)"/>
<path d="M61.4788 173.111C61.4788 173.111 71.2285 175.181 72.6908 179.537C74.1527 183.891 59.14 188.314 54.9114 188.614L51.9165 206.397C51.9165 206.397 41.4412 189.98 45.2092 180.269C48.9776 170.556 61.4788 173.111 61.4788 173.111Z" fill="url(#paint20_linear)"/>
<path d="M56.9076 203.827C56.9076 203.827 48.4685 194.504 45.3471 200.786C42.2252 207.064 52.9967 211.469 56.6162 208.337L56.9076 203.827Z" fill="url(#paint21_linear)"/>
<path d="M95.4457 406.695C95.384 408.297 98.1982 421.011 99.73 427.793C100.346 430.523 99.9169 433.38 98.5278 435.808L45.4827 525.084C44.841 526.165 44.3739 527.335 44.0901 528.558C43.1179 532.748 41.1016 543.015 42.1543 552.356L44.8983 558.055L33.0304 555.36L30.4485 523.489L33.8085 521.44C36.7107 519.671 38.9709 517.025 40.2648 513.881C45.0614 502.231 56.9724 472.573 60.0426 458.12C63.5319 441.694 81.7734 428.35 81.7734 428.35L78.5683 420.775L95.4457 406.695Z" fill="url(#paint22_linear)"/>
<path d="M19.8407 544.393C19.8407 544.393 26.2496 534.233 27.0038 530.277C27.7576 526.322 29.8567 519.339 33.8083 521.439C33.8083 521.439 35.6702 540.652 35.0282 548.162C34.3861 555.669 43.5147 555.428 43.5147 555.428C43.5147 555.428 46.0306 555.781 47.8731 557.622C49.1455 558.895 48.2355 561.101 46.4403 561.215C43.4532 561.409 38.7083 561.459 33.7259 560.497C31.985 560.16 30.6939 558.679 30.5884 556.908L29.2735 534.795L21.1891 545.004L19.8407 544.393Z" fill="url(#paint23_linear)"/>
<path d="M63.7574 420.915C63.7574 420.915 61.8866 500.774 61.6333 512.115C61.3801 523.456 63.4243 548.592 74.7942 556.104L69.8467 559.767C69.8467 559.767 63.6636 554.513 57.6232 544.398C50.8374 533.038 48.7856 530.96 48.7856 530.96L51.0372 526.35C52.023 524.331 52.3128 522.048 51.8588 519.846C49.4053 507.955 41.2084 468.402 38.9725 459.884C36.3333 449.827 36.1454 436.402 45.3278 425.161C54.5102 413.921 63.7574 420.915 63.7574 420.915Z" fill="url(#paint24_linear)"/>
<path d="M53.2582 563.367C52.9052 563.37 52.6055 563.117 52.5556 562.769C52.1771 560.106 50.6023 549.432 49.3131 546.669C47.8365 543.504 43.0139 530.181 49.3159 529.049C49.3159 529.049 64.9834 551.94 67.9909 555.025C70.9983 558.113 74.7942 556.104 74.7942 556.104C74.7942 556.104 77.7247 556.969 79.9342 559.795C80.986 561.138 80.0065 563.112 78.2997 563.129L67.7467 563.229C64.6821 563.257 61.9252 561.395 60.7857 558.551C58.9283 553.912 55.7374 547.104 52.0183 544.087L53.9513 562.591C53.9939 563.002 53.6727 563.363 53.2582 563.367Z" fill="url(#paint25_linear)"/>
<path d="M76.8641 323.95C76.8641 323.95 74.4862 331.529 78.1396 344.012L100.803 423.154C101.159 424.399 100.488 425.699 99.2704 426.137C92.4914 428.57 70.2064 435.445 39.7858 433.349C38.2542 433.244 36.9697 432.158 36.637 430.659C34.6324 421.638 27.7934 390.855 26.3851 384.529C21.0198 360.427 15.0287 334.437 41.3842 318.721C53.5306 323.924 64.8593 326.991 76.8641 323.95Z" fill="url(#paint26_linear)"/>
<path d="M3.5995 293.351L3.42639 293.342C6.28156 291.098 21.4431 291.016 21.4431 291.016C21.4431 291.016 32.4544 275.074 36.1859 271.118C36.307 270.994 36.4306 270.872 36.5323 270.772C36.6137 270.69 36.6956 270.608 36.817 270.505C38.1827 269.242 39.6315 267.976 41.2017 266.673C42.9335 265.225 44.3207 263.37 45.1568 261.269C50.9881 246.587 46.3802 236.984 35.7776 243.144C35.7776 243.144 13.3691 261.758 4.66414 288.141C4.56238 288.469 4.48073 288.775 4.3771 289.079C4.03064 290.303 3.68419 291.465 3.37937 292.546C3.35762 292.628 3.44604 292.745 3.42639 292.825C3.36439 293.009 3.66079 293.168 3.5995 293.351Z" fill="url(#paint27_linear)"/>
<path d="M59.0189 302.933C59.0189 302.933 32.9763 317.652 24.1888 305.083C22.3646 302.474 20.994 293.489 21.4431 291.016C13.6368 287.074 7.76266 292.869 3.37943 292.546C2.22965 298.57 1.67147 304.435 5.21136 310.91C20.6035 339.066 62.4656 309.354 62.4656 309.354L59.0189 302.933Z" fill="url(#paint28_linear)"/>
<path d="M55.8899 321.554L70.1031 271.918C70.2642 271.354 70.7452 270.943 71.3272 270.875C73.9026 270.575 81.3642 269.731 89.98 269.003C100.358 268.124 112.409 267.412 119.61 268.018C120.634 268.105 121.254 269.188 120.798 270.11C116.702 278.393 99.8574 312.096 91.4215 323.136C91.1419 323.503 90.7099 323.716 90.2497 323.711L57.2727 323.405C56.3131 323.395 55.6258 322.476 55.8899 321.554Z" fill="url(#paint29_linear)"/>
<path d="M91.4539 264.698L101.759 262.981C102.308 262.89 102.757 263.414 102.583 263.943L101.563 267.033C101.474 267.302 101.24 267.499 100.958 267.536L91.0417 268.86C90.5292 268.928 90.106 268.462 90.2241 267.959L90.8553 265.26C90.9234 264.97 91.1596 264.748 91.4539 264.698Z" fill="url(#paint30_linear)"/>
<path d="M83.7381 273.422L84.587 269.001C84.6722 268.558 85.0385 268.222 85.4877 268.177L106.301 266.065C107.001 265.995 107.562 266.636 107.398 267.321L106.075 272.83C105.969 273.27 105.585 273.59 105.132 273.611L84.7933 274.636C84.1315 274.669 83.6131 274.075 83.7381 273.422Z" fill="url(#paint31_linear)"/>
<path d="M59.324 309.56C59.324 309.56 57.3442 301.419 58.1428 298.53C58.9412 295.643 60.4887 291.928 65.6465 292.754C70.8043 293.58 76.8887 295.753 76.8887 295.753C76.8887 295.753 76.5813 299.515 72.661 298.301L75.0921 300.182C75.0921 300.182 74.7444 303.195 71.4333 301.585L73.6945 304.079C73.6945 304.079 72.2722 306.554 69.8363 304.966C67.4005 303.38 66.2325 310.54 59.324 309.56Z" fill="url(#paint32_linear)"/>
<defs>
<linearGradient id="paint0_linear" x1="676.504" y1="646.028" x2="199.367" y2="131.024" gradientUnits="userSpaceOnUse">
<stop stop-color="#C4D5FD"/>
<stop offset="1" stop-color="#CEDDFC"/>
</linearGradient>
<linearGradient id="paint1_linear" x1="676.505" y1="646.028" x2="199.367" y2="131.024" gradientUnits="userSpaceOnUse">
<stop stop-color="#C4D5FD"/>
<stop offset="1" stop-color="#CEDDFC"/>
</linearGradient>
<linearGradient id="paint2_linear" x1="45.872" y1="16.6719" x2="56.2429" y2="402.778" gradientUnits="userSpaceOnUse">
<stop stop-color="#09005D"/>
<stop offset="1" stop-color="#1A0F91"/>
</linearGradient>
<linearGradient id="paint3_linear" x1="346.751" y1="511.116" x2="336.273" y2="-234.7" gradientUnits="userSpaceOnUse">
<stop stop-color="#09005D"/>
<stop offset="1" stop-color="#1A0F91"/>
</linearGradient>
<linearGradient id="paint4_linear" x1="-42.1659" y1="544.47" x2="554.107" y2="121.589" gradientUnits="userSpaceOnUse">
<stop stop-color="#4F52FF"/>
<stop offset="1" stop-color="#4042E2"/>
</linearGradient>
<linearGradient id="paint5_linear" x1="354.997" y1="159.433" x2="332.456" y2="459.576" gradientUnits="userSpaceOnUse">
<stop stop-color="#FF928E"/>
<stop offset="1" stop-color="#FE7062"/>
</linearGradient>
<linearGradient id="paint6_linear" x1="524.066" y1="70.945" x2="557.413" y2="135.638" gradientUnits="userSpaceOnUse">
<stop stop-color="#4F52FF"/>
<stop offset="1" stop-color="#4042E2"/>
</linearGradient>
<linearGradient id="paint7_linear" x1="410.746" y1="69.8803" x2="444.093" y2="134.573" gradientUnits="userSpaceOnUse">
<stop stop-color="#4F52FF"/>
<stop offset="1" stop-color="#4042E2"/>
</linearGradient>
<linearGradient id="paint8_linear" x1="296.364" y1="66.1563" x2="329.71" y2="130.849" gradientUnits="userSpaceOnUse">
<stop stop-color="#4F52FF"/>
<stop offset="1" stop-color="#4042E2"/>
</linearGradient>
<linearGradient id="paint9_linear" x1="183.043" y1="60.8367" x2="216.39" y2="125.53" gradientUnits="userSpaceOnUse">
<stop stop-color="#4F52FF"/>
<stop offset="1" stop-color="#4042E2"/>
</linearGradient>
<linearGradient id="paint10_linear" x1="123.907" y1="-80.0434" x2="244.961" y2="154.801" gradientUnits="userSpaceOnUse">
<stop stop-color="#FF928E"/>
<stop offset="1" stop-color="#FE7062"/>
</linearGradient>
<linearGradient id="paint11_linear" x1="237.218" y1="-76.9297" x2="358.309" y2="157.987" gradientUnits="userSpaceOnUse">
<stop stop-color="#FF928E"/>
<stop offset="1" stop-color="#FE7062"/>
</linearGradient>
<linearGradient id="paint12_linear" x1="350.533" y1="-73.788" x2="471.649" y2="161.176" gradientUnits="userSpaceOnUse">
<stop stop-color="#FF928E"/>
<stop offset="1" stop-color="#FE7062"/>
</linearGradient>
<linearGradient id="paint13_linear" x1="463.842" y1="-70.1831" x2="585.013" y2="164.888" gradientUnits="userSpaceOnUse">
<stop stop-color="#FF928E"/>
<stop offset="1" stop-color="#FE7062"/>
</linearGradient>
<linearGradient id="paint14_linear" x1="89.1065" y1="202.559" x2="140.598" y2="265.86" gradientUnits="userSpaceOnUse">
<stop stop-color="#FEBBBA"/>
<stop offset="1" stop-color="#FF928E"/>
</linearGradient>
<linearGradient id="paint15_linear" x1="-22.2171" y1="363.26" x2="87.4584" y2="266.767" gradientUnits="userSpaceOnUse">
<stop stop-color="#FF928E"/>
<stop offset="1" stop-color="#FE7062"/>
</linearGradient>
<linearGradient id="paint16_linear" x1="82.55" y1="148.761" x2="-11.1704" y2="331.456" gradientUnits="userSpaceOnUse">
<stop stop-color="#E1473D"/>
<stop offset="1" stop-color="#E9605A"/>
</linearGradient>
<linearGradient id="paint17_linear" x1="-26.0248" y1="358.932" x2="83.6506" y2="262.438" gradientUnits="userSpaceOnUse">
<stop stop-color="#FF928E"/>
<stop offset="1" stop-color="#FE7062"/>
</linearGradient>
<linearGradient id="paint18_linear" x1="60.2264" y1="248.602" x2="59.1719" y2="205.891" gradientUnits="userSpaceOnUse">
<stop stop-color="#FEBBBA"/>
<stop offset="1" stop-color="#FF928E"/>
</linearGradient>
<linearGradient id="paint19_linear" x1="73.8436" y1="185.828" x2="49.0805" y2="242.929" gradientUnits="userSpaceOnUse">
<stop stop-color="#FEBBBA"/>
<stop offset="1" stop-color="#FF928E"/>
</linearGradient>
<linearGradient id="paint20_linear" x1="76.7473" y1="145.783" x2="-16.9732" y2="328.478" gradientUnits="userSpaceOnUse">
<stop stop-color="#E1473D"/>
<stop offset="1" stop-color="#E9605A"/>
</linearGradient>
<linearGradient id="paint21_linear" x1="61.435" y1="180.445" x2="36.6725" y2="237.545" gradientUnits="userSpaceOnUse">
<stop stop-color="#FEBBBA"/>
<stop offset="1" stop-color="#FF928E"/>
</linearGradient>
<linearGradient id="paint22_linear" x1="-0.852906" y1="602.381" x2="94.9601" y2="429.44" gradientUnits="userSpaceOnUse">
<stop stop-color="#FEBBBA"/>
<stop offset="1" stop-color="#FF928E"/>
</linearGradient>
<linearGradient id="paint23_linear" x1="14.8257" y1="482.742" x2="44.8811" y2="589.781" gradientUnits="userSpaceOnUse">
<stop stop-color="#09005D"/>
<stop offset="1" stop-color="#1A0F91"/>
</linearGradient>
<linearGradient id="paint24_linear" x1="76.1283" y1="479.308" x2="174.73" y2="412.342" gradientUnits="userSpaceOnUse">
<stop stop-color="#FEBBBA"/>
<stop offset="1" stop-color="#FF928E"/>
</linearGradient>
<linearGradient id="paint25_linear" x1="161.622" y1="465.658" x2="108.237" y2="509.552" gradientUnits="userSpaceOnUse">
<stop stop-color="#09005D"/>
<stop offset="1" stop-color="#1A0F91"/>
</linearGradient>
<linearGradient id="paint26_linear" x1="26.958" y1="330.764" x2="87.4609" y2="425.671" gradientUnits="userSpaceOnUse">
<stop stop-color="#4F52FF"/>
<stop offset="1" stop-color="#4042E2"/>
</linearGradient>
<linearGradient id="paint27_linear" x1="-47.7407" y1="334.247" x2="61.9345" y2="237.754" gradientUnits="userSpaceOnUse">
<stop stop-color="#FF928E"/>
<stop offset="1" stop-color="#FE7062"/>
</linearGradient>
<linearGradient id="paint28_linear" x1="2.50311" y1="306.334" x2="62.4654" y2="306.334" gradientUnits="userSpaceOnUse">
<stop stop-color="#FEBBBA"/>
<stop offset="1" stop-color="#FF928E"/>
</linearGradient>
<linearGradient id="paint29_linear" x1="80.854" y1="264.306" x2="114.275" y2="403.561" gradientUnits="userSpaceOnUse">
<stop stop-color="#09005D"/>
<stop offset="1" stop-color="#1A0F91"/>
</linearGradient>
<linearGradient id="paint30_linear" x1="101.779" y1="242.355" x2="94.6609" y2="273.612" gradientUnits="userSpaceOnUse">
<stop stop-color="#4F52FF"/>
<stop offset="1" stop-color="#4042E2"/>
</linearGradient>
<linearGradient id="paint31_linear" x1="98.0534" y1="255.465" x2="94.6492" y2="275.89" gradientUnits="userSpaceOnUse">
<stop stop-color="#4F52FF"/>
<stop offset="1" stop-color="#4042E2"/>
</linearGradient>
<linearGradient id="paint32_linear" x1="57.9529" y1="301.145" x2="76.8886" y2="301.145" gradientUnits="userSpaceOnUse">
<stop stop-color="#FEBBBA"/>
<stop offset="1" stop-color="#FF928E"/>
</linearGradient>
</defs>
</svg>
