<svg width="180" height="160" viewBox="0 0 180 160" fill="none" xmlns="http://www.w3.org/2000/svg">
<g clip-path="url(#clip0)">
<path d="M0.139309 140.553C-0.290231 143.172 0.221288 145.44 2.40833 147.083C4.99541 149.028 8.32026 150.287 11.4385 151.021C15.2388 151.913 19.1702 152.123 23.059 152.11C27.4003 152.097 31.7482 151.86 36.0666 151.462C40.398 151.061 44.7098 150.48 48.9888 149.719C52.8809 149.028 56.7697 148.222 60.5306 146.983C64.003 145.838 67.4033 144.314 70.3346 142.096C71.197 141.443 72.6397 140.249 72.3217 138.975C72.0659 137.954 70.833 137.668 69.9412 137.535C68.2656 137.285 66.5409 137.356 64.8523 137.428C60.1503 137.629 55.4647 138.126 50.7562 138.188C48.6511 138.215 46.5034 138.195 44.4213 137.832C43.4212 137.658 42.4047 137.416 41.5128 136.922C40.8144 136.536 39.6701 135.776 40.1423 134.858C40.5357 134.087 41.7096 133.545 42.4408 133.127C45.7328 131.238 49.4708 130.253 53.199 129.676C57.2058 129.057 61.3438 128.826 65.3933 128.987C69.7543 129.161 73.7808 130.146 77.709 132.039C81.1387 133.691 84.4964 135.401 88.0835 136.698C95.166 139.258 102.665 140.658 110.18 141.013C117.777 141.37 125.447 140.646 132.821 138.788C136.444 137.877 140.189 136.795 143.504 135.035C146.35 133.522 149.278 130.898 149.213 127.393C149.15 123.86 145.75 121.958 142.832 120.871C139.576 119.66 136.103 119.024 132.641 118.85C125.742 118.503 118.604 120.014 112.593 123.47C110.443 124.707 106.039 127.151 107.387 130.263C108.619 133.109 112.944 133.137 115.502 132.927C119.574 132.594 123.47 131.315 127.349 130.115C131.434 128.852 135.572 127.844 139.812 127.262C147.478 126.212 156.128 125.901 163.417 128.921C166.575 130.23 170.424 132.615 171.119 136.255C171.824 139.93 168.05 142.116 165.168 143.262C161.656 144.658 157.882 145.554 154.19 146.331C150.216 147.168 146.183 147.734 142.12 147.908C134.018 148.252 126.132 146.872 118.899 143.128C111.836 139.472 105.311 134.507 97.3563 132.924C91.2247 131.705 83.2044 132.61 79.2664 138.088C78.3057 139.424 77.7548 141.097 78.4664 142.67C79.0959 144.065 80.4305 145.011 81.8109 145.574C83.6176 146.31 85.6374 146.367 87.5589 146.243C89.7426 146.103 91.9198 145.803 94.0938 145.566C103.016 144.586 111.938 143.608 120.863 142.628C125.286 142.142 129.713 141.64 134.139 141.174C138.32 140.733 142.619 140.36 146.789 141.097C147.885 141.291 151.852 141.808 151.157 143.642C150.534 145.276 148.022 146.143 146.57 146.8C143.084 148.376 139.379 149.456 135.625 150.17C119.21 153.297 102.688 149.433 86.6539 146.037C71.1347 142.749 54.7761 139.904 39.1291 144.102C35.6141 145.044 32.04 146.323 28.8923 148.175C27.7512 148.844 26.6265 150.006 27.2364 151.418C27.761 152.642 29.2332 153.262 30.4301 153.599C32.1646 154.092 34.0697 154.139 35.86 154.216C37.8634 154.304 39.8734 154.28 41.8801 154.182C45.9361 153.982 49.9725 153.48 53.9957 152.946C61.9307 151.893 69.9772 150.64 77.9942 151.455C79.8895 151.648 82.0339 151.827 83.8143 152.544C84.375 152.771 85.6603 153.347 85.1718 154.103C84.7062 154.824 83.2044 155.281 82.447 155.62C78.9845 157.168 74.9842 158.366 71.1609 158.324C69.669 158.307 68.0689 158.11 66.7573 157.353C66.1999 157.029 65.7441 156.614 65.413 156.059C65.331 155.923 65.2458 155.776 65.1736 155.633C65.1834 155.649 65.1211 155.503 65.1211 155.511C65.1113 155.449 65.1342 155.367 65.1375 155.359C65.2359 155.189 65.2589 155.153 65.4622 154.991C65.7835 154.734 66.3442 154.476 66.7967 154.307C70.6986 152.85 75.1481 152.564 79.2566 152.189C84.8144 151.682 90.3951 151.42 95.9726 151.244C101.94 151.058 107.921 151.095 113.889 150.846C121.588 150.524 129.385 149.758 136.766 147.433C140.35 146.306 143.763 144.777 146.989 142.853C150.4 140.818 153.708 138.704 157.662 137.915C164.981 136.455 172.693 138.841 179.041 142.435C179.759 142.84 180.405 141.737 179.687 141.33C173.296 137.713 165.725 135.388 158.341 136.503C154.469 137.089 151.114 138.859 147.806 140.866C144.484 142.881 141.11 144.634 137.418 145.878C124.273 150.305 110.167 149.539 96.5005 149.949C90.923 150.118 85.3423 150.374 79.7812 150.863C75.5252 151.238 71.0167 151.556 66.9311 152.908C65.9376 153.237 64.6392 153.681 64.0752 154.643C63.3636 155.849 64.5506 157.298 65.449 158.006C67.7115 159.788 71.1019 159.8 73.8136 159.423C77.6565 158.887 81.5223 157.675 84.9423 155.824C86.126 155.186 87.1654 154.026 86.2178 152.702C85.2898 151.41 83.4733 151.051 82.0207 150.766C78.1778 150.015 74.2497 149.825 70.3478 149.961C62.2357 150.239 54.2449 151.833 46.1788 152.589C42.1752 152.966 38.1388 153.143 34.1222 152.834C32.4401 152.703 30.4989 152.625 29.0628 151.616C27.0823 150.224 30.0628 148.965 31.2105 148.398C38.0602 145.023 45.7525 143.635 53.3334 143.347C70.2461 142.707 86.5194 147.765 103.009 150.661C117.974 153.291 134.539 154.211 148.55 147.272C149.96 146.573 151.708 145.691 152.337 144.137C152.892 142.765 152.082 141.541 150.849 140.926C149.236 140.117 147.291 139.84 145.517 139.628C143.448 139.382 141.36 139.371 139.281 139.47C134.946 139.679 130.631 140.278 126.319 140.751C121.86 141.24 117.397 141.729 112.934 142.219C108.475 142.709 104.013 143.197 99.5499 143.688C97.3202 143.933 95.0906 144.177 92.8576 144.422C90.7165 144.657 88.5589 144.983 86.3981 145.012C84.434 145.041 82.3093 144.776 80.7288 143.498C78.991 142.096 79.214 140.205 80.5092 138.546C82.5126 135.975 85.7489 134.626 88.8737 134.039C96.7399 132.561 104.245 136.194 110.862 140.035C114.384 142.08 117.863 144.221 121.614 145.826C125.135 147.333 128.844 148.299 132.638 148.799C140.504 149.837 148.537 148.963 156.229 147.189C159.781 146.37 163.443 145.483 166.768 143.96C169.368 142.767 172.09 140.817 172.444 137.748C172.837 134.315 170.109 131.391 167.47 129.63C164.538 127.673 161.089 126.576 157.639 125.979C149.695 124.604 141.255 125.358 133.434 127.125C129.352 128.048 125.424 129.489 121.384 130.558C119.348 131.097 117.279 131.528 115.177 131.673C113.462 131.791 111.629 131.785 110.036 131.048C109.462 130.782 108.842 130.393 108.57 129.794C108.151 128.873 108.764 127.965 109.387 127.32C110.587 126.075 112.203 125.141 113.708 124.31C116.751 122.632 120.066 121.483 123.47 120.801C126.981 120.095 130.605 119.908 134.172 120.238C137.648 120.56 141.353 121.334 144.461 122.972C146.003 123.784 147.583 124.991 147.888 126.819C148.18 128.601 147.245 130.395 146.039 131.641C143.366 134.401 139.232 135.601 135.654 136.679C121.033 141.085 104.885 140.897 90.3722 136.137C86.7621 134.953 83.329 133.418 79.9386 131.718C76.2761 129.883 72.6463 128.452 68.5542 127.956C64.5211 127.467 60.3897 127.627 56.3533 128.01C52.6186 128.365 48.8609 129.008 45.3427 130.357C43.677 130.997 42.0637 131.781 40.5816 132.775C39.3979 133.567 38.2044 134.73 38.9717 136.252C40.0209 138.335 42.8736 138.922 44.9787 139.2C49.5364 139.803 54.2285 139.387 58.7895 139.078C60.9963 138.93 63.203 138.764 65.4097 138.685C66.9475 138.631 68.5935 138.527 70.1084 138.857C70.5478 138.952 70.9019 139.132 71.056 139.234C71.0691 139.243 71.115 139.24 71.0789 139.366C71.0789 139.366 71.0265 139.543 70.9183 139.721C70.4101 140.546 69.5378 141.125 68.7607 141.661C67.2459 142.704 65.6195 143.579 63.9375 144.324C60.3962 145.892 56.6123 146.882 52.8284 147.679C48.5494 148.582 44.2213 149.272 39.8767 149.782C35.496 150.299 31.0891 150.626 26.679 150.765C22.6197 150.892 18.5144 150.918 14.4912 150.306C10.9991 149.777 7.71693 148.695 4.62818 146.98C3.61827 146.42 2.55259 145.77 1.90337 144.782C1.14265 143.624 1.15578 142.215 1.37547 140.892C1.50663 140.088 0.273745 139.742 0.139309 140.553Z" fill="#516889"/>
<path d="M1.40862 140.714C1.44407 140.518 1.4937 140.325 1.56458 140.136C1.57167 140.112 1.61419 139.98 1.58584 140.072C1.55984 140.16 1.60474 140.035 1.61419 140.011C1.65673 139.921 1.70399 139.832 1.75361 139.745C1.79851 139.666 1.84813 139.589 1.90011 139.512C1.92374 139.478 1.94736 139.445 1.97335 139.409C1.98517 139.393 2.01588 139.332 1.97335 139.406C1.9261 139.489 1.99225 139.385 2.00406 139.371C2.11984 139.229 2.24508 139.094 2.37977 138.967C2.44593 138.904 2.51445 138.843 2.58534 138.782C2.61842 138.754 2.65384 138.727 2.68456 138.7C2.79798 138.608 2.62313 138.745 2.70819 138.682C2.86886 138.568 3.02719 138.457 3.19495 138.356C3.36271 138.255 3.53519 138.161 3.7124 138.074C3.79037 138.035 3.86835 137.998 3.94868 137.962C3.99594 137.941 4.0432 137.922 4.09045 137.9C4.15425 137.871 4.03611 137.922 4.03611 137.922C4.06447 137.912 4.09047 137.9 4.11646 137.89C4.78514 137.62 5.4869 137.429 6.19812 137.315C6.23356 137.309 6.26902 137.303 6.30682 137.298C6.33281 137.294 6.48403 137.273 6.36116 137.29C6.24775 137.306 6.37062 137.289 6.39661 137.286C6.43441 137.281 6.47458 137.277 6.51475 137.273C6.65416 137.258 6.79356 137.247 6.93533 137.241C7.15035 137.231 7.36774 137.231 7.58276 137.258C8.16638 137.331 8.88231 137.484 9.51319 137.611C10.215 137.753 10.9191 137.888 11.6303 137.983C12.8732 138.148 14.1326 138.156 15.3778 138.007C16.6561 137.854 17.9108 137.565 19.1135 137.106C20.3091 136.65 21.4125 136.04 22.497 135.367C23.0169 135.043 23.5343 134.715 24.066 134.409C24.3259 134.26 24.5882 134.116 24.8552 133.982C24.9875 133.915 25.1222 133.85 25.2569 133.788C25.3207 133.759 25.3821 133.731 25.4459 133.704C25.4412 133.705 25.5451 133.662 25.4955 133.682C25.453 133.7 25.5947 133.642 25.6113 133.636C26.8612 133.144 28.2128 132.999 29.5336 132.79C29.8668 132.737 30.2047 132.684 30.5378 132.63C30.8686 132.578 31.0836 132.147 30.9844 131.844C30.8686 131.484 30.5543 131.341 30.1999 131.397C29.5029 131.508 28.8058 131.618 28.1088 131.729C27.4236 131.837 26.736 131.943 26.0697 132.133C24.8457 132.479 23.7234 133.105 22.6483 133.767C21.5755 134.425 20.5241 135.113 19.3734 135.626C19.1182 135.74 18.8819 135.835 18.5747 135.947C18.2864 136.052 17.9958 136.148 17.7005 136.236C17.0908 136.417 16.4694 136.559 15.8385 136.662C15.7582 136.675 15.6755 136.688 15.5952 136.7C15.5597 136.705 15.5243 136.71 15.4888 136.715C15.5054 136.712 15.5597 136.706 15.4841 136.715C15.3187 136.736 15.1557 136.754 14.9926 136.77C14.6737 136.799 14.357 136.819 14.038 136.829C13.4001 136.848 12.7621 136.826 12.1289 136.763C10.8482 136.634 9.4943 136.27 8.17347 136.063C7.81905 136.007 7.4646 135.952 7.10308 135.957C6.79828 135.961 6.49348 135.993 6.19103 136.034C5.46564 136.131 4.74969 136.297 4.05974 136.548C2.46246 137.13 0.938435 138.138 0.32882 139.795C0.26266 139.984 0.210664 140.176 0.172858 140.374C0.113787 140.701 0.265009 141.079 0.621799 141.159C0.933695 141.232 1.34246 141.065 1.40862 140.714Z" fill="#516889"/>
<path d="M64.1315 101.472C59.7647 105.988 55.7094 110.829 50.9404 114.915C46.1689 119.002 40.5346 122.356 34.3145 123.233C33.7047 123.319 33.0151 123.424 32.6609 123.929C32.3041 124.434 32.7834 125.368 33.3452 125.11C32.7435 125.322 32.4293 126.108 32.7195 126.674C33.0071 127.239 33.8299 127.446 34.3517 127.084C33.8884 127.429 33.6941 128.095 33.9018 128.635C34.7112 129.116 35.731 128.967 36.655 128.794C44.4993 127.322 52.2638 125.159 59.4372 121.654C66.6079 118.15 73.1874 113.256 78.0335 106.913C78.9548 105.708 79.8442 104.36 79.8974 102.844C79.9613 101.142 78.9149 99.5352 77.509 98.5724C72.591 95.1985 67.8087 97.6687 64.1315 101.472Z" fill="#CCCCCC"/>
<path d="M71.2847 113.993C71.2664 113.873 71.2403 113.753 71.2142 113.635C71.0733 112.985 70.9063 112.318 70.5123 111.782C70.0426 111.141 69.2858 110.754 68.5108 110.59C67.7332 110.426 66.9268 110.466 66.1362 110.544C63.5241 110.8 60.9668 111.452 58.4252 112.103C57.4857 112.343 56.502 112.607 55.8 113.273C55.0954 113.94 54.8032 115.147 55.4373 115.881C55.7322 116.224 56.1706 116.405 56.5776 116.604C57.3005 116.957 58.0494 117.502 58.1538 118.3C58.2503 119.01 57.7884 119.693 57.2065 120.11C56.6272 120.528 55.9305 120.748 55.2781 121.044C54.8214 121.252 54.3831 121.5 53.9655 121.783C53.7959 121.899 53.6237 122.03 53.5454 122.22C53.4828 122.373 53.4906 122.545 53.5037 122.711C53.5324 123.105 53.5559 123.654 53.6524 124.161C55.62 123.411 57.5562 122.579 59.4533 121.653C63.6806 119.587 67.7019 117.038 71.2847 113.993Z" fill="#494C56"/>
<path d="M125.054 60.2602C121.064 62.7633 118.492 67.1305 117.382 71.708C116.27 76.2854 116.486 81.0848 117.101 85.7549C117.716 90.4251 118.724 95.0421 119.178 99.7305C120.022 108.447 118.925 117.357 115.899 125.575C115.645 126.264 115.191 127.113 115.939 127.453C116.551 127.677 116.879 127.295 117.03 126.841C116.706 128.563 118.662 128.979 119.095 127.128C118.316 127.592 119.163 128.949 120.056 128.798C120.953 128.647 121.481 127.732 121.833 126.896C122.894 124.379 123.484 121.695 124.226 119.067C126.649 110.459 130.742 102.324 136.207 95.248C139.279 91.2736 142.784 87.6163 145.418 83.3387C148.048 79.0617 149.77 73.9415 148.781 69.0179C147.795 64.0983 144.07 60.6107 139.226 59.7836C134.148 58.9156 130.006 57.1547 125.054 60.2602Z" fill="#CCCCCC"/>
<path d="M136.168 94.912C135.874 93.6659 135.654 92.4016 135.522 91.1285C135.41 90.0788 135.347 88.9901 134.86 88.0536C133.161 84.7739 129.266 85.8433 126.445 86.4331C123.522 87.0439 121.507 89.1721 121.696 92.3002C121.732 92.9294 121.822 93.5724 122.123 94.1267C122.583 94.9796 123.471 95.4969 124.225 96.1048C126.174 97.6729 127.431 100.255 126.935 102.708C126.595 104.388 125.516 105.805 124.541 107.213C123.699 108.427 122.911 109.679 122.186 110.964C121.883 111.497 121.585 112.063 121.579 112.675C121.57 113.364 121.931 113.996 122.28 114.589C123.004 115.818 123.732 117.046 124.454 118.274C126.851 109.845 130.848 101.874 136.168 94.912Z" fill="#494C56"/>
<path d="M84.1731 82.7973C90.0108 76.3635 94.9369 69.1621 100.526 62.5092C106.112 55.856 112.518 49.6426 120.381 45.9506C126.498 43.0787 134.26 42.0272 139.665 46.0866C144.502 49.7212 146.003 56.3348 146.068 62.3858C146.227 77.4712 139.757 70.8026 127.37 85.9089C120.246 94.5967 107.426 103.264 91.4871 115.65C83.0006 122.242 73.5043 114.378 62.8203 115.5C59.9843 115.798 56.645 115.905 54.8218 113.71C52.9956 111.504 53.7537 108.146 55.1257 105.629C58.4282 99.5729 64.4255 95.5389 70.2632 91.8595C71.5953 91.0192 71.5339 90.5523 72.8997 89.9655C74.3116 89.359 75.8891 89.2906 77.3225 88.5377C79.9651 87.1491 82.1842 84.9893 84.1731 82.7973Z" fill="#E8E8E8"/>
<path d="M92.8219 86.1633C94.3427 85.7993 95.6619 84.8859 97.0502 84.1621C98.4357 83.4386 100.046 82.887 101.549 83.3208C102.376 83.5595 103.096 84.0789 103.917 84.3421C106.169 85.0656 108.563 83.7228 110.303 82.1211C111.276 81.2253 112.209 80.1207 112.287 78.8001C112.342 77.8845 111.97 76.9893 111.46 76.2263C110.228 74.3765 108.237 73.1815 106.734 71.5426C105.233 69.9037 104.254 67.3281 105.51 65.4925C106.526 64.0092 108.517 63.6592 110.118 62.8461C113.779 60.9906 115.429 55.9829 113.592 52.3151C113.304 51.7448 112.95 51.2177 112.541 50.7347C108.082 54.1032 104.133 58.2137 100.527 62.5085C96.1429 67.7291 92.1652 73.2852 87.8333 78.5452C88.0522 79.2901 88.1818 80.0646 88.1818 80.8811C88.1846 82.2306 87.9312 83.6929 88.6397 84.8421C89.4577 86.1746 91.3011 86.5274 92.8219 86.1633Z" fill="#494C56"/>
<path d="M132.952 78.4521C132.637 78.4117 132.329 78.573 132.054 78.7385C129.995 79.9806 128.301 81.7363 126.595 83.4306C116.529 93.4115 105.021 101.935 92.5406 108.653C90.1492 109.94 88.1619 110.728 86.5726 112.986C85.4682 114.554 84.5494 116.255 83.843 118.04C86.7821 118.129 89.6135 117.504 92.3371 115.387C108.278 103.001 121.099 94.3336 128.223 85.646C130.222 83.207 132.069 81.3361 133.757 79.8492C133.793 79.2225 133.55 78.5278 132.952 78.4521Z" fill="#D8D8D8"/>
<path d="M149.154 47.1054C150.77 44.8338 150.792 41.7792 150.224 39.0495C148.749 31.9976 143.952 26.192 140.398 19.9256C138.169 15.991 136.369 11.2804 137.905 7.02609C139.396 2.8977 143.82 0.335655 148.2 0.0362015C152.579 -0.263569 156.881 1.33812 160.727 3.45388C163.384 4.91483 165.951 6.68518 167.719 9.14987C168.943 10.8618 169.659 13.42 168.204 14.9417C167.185 16.0052 165.508 16.091 164.065 15.7999C161.91 15.3655 159.956 14.2772 157.977 13.3268C155.998 12.376 153.867 11.5359 151.676 11.6564C149.482 11.7768 147.216 13.1025 146.648 15.2237C145.925 17.9047 147.994 20.4381 149.719 22.6124C153.777 27.7207 156.676 33.7435 158.137 40.1008C159.346 45.3495 159.448 51.2888 156.296 55.6556C154.812 57.709 152.717 59.2512 150.484 60.4487C147.242 62.1882 143.605 63.2684 139.926 63.2347C136.247 63.201 132.536 62.0038 129.734 59.6182C128.163 58.2803 126.878 56.5475 126.335 54.5564C125.792 52.5653 126.065 50.3075 127.302 48.6563C128.497 47.063 130.573 46.235 132.539 46.3944C134.805 46.5782 136.164 48.1577 137.825 49.4863C141.019 52.0409 146.93 50.2275 149.154 47.1054Z" fill="#E8E8E8"/>
<path d="M167.718 9.14988C165.951 6.68518 163.384 4.91483 160.727 3.45388C156.881 1.33812 152.579 -0.263571 148.199 0.0362015C143.82 0.335653 139.396 2.8977 137.905 7.02609C136.931 9.72245 137.298 12.6016 138.265 15.3503C139.209 15.3735 140.17 15.2337 141.057 15.6848C142.217 16.2754 142.76 17.5387 143.544 18.5074C144.71 19.952 146.532 20.834 148.386 20.8841C147.12 19.1378 146.108 17.2219 146.648 15.2237C147.216 13.1025 149.481 11.7769 151.676 11.6564C153.867 11.5359 155.997 12.3761 157.977 13.3268C159.956 14.2772 161.909 15.3655 164.065 15.7999C165.508 16.091 167.185 16.0052 168.204 14.9417C169.659 13.42 168.943 10.8618 167.718 9.14988Z" fill="#494C56"/>
<path d="M32.5904 86.3937C36.5601 85.7941 40.717 86.3893 44.4232 88.088C44.8542 88.2862 45.29 88.5054 45.6299 88.8492C46.1126 89.339 46.344 90.0268 46.5238 90.6969C47.2872 93.5419 47.3438 96.5061 47.0434 99.4032C46.8907 100.85 46.6469 102.282 46.3613 103.703C46.1347 104.819 46.0337 107.045 45.327 107.927C42.8742 110.997 36.7916 98.1689 35.8878 96.1358C35.543 95.3645 32.3491 86.4301 32.5904 86.3937Z" fill="#E8E8E8"/>
<path d="M79.2378 110.344C79.8914 109.891 80.5261 109.409 81.0608 108.823C81.6226 108.204 82.0602 107.482 82.4545 106.746C85.5631 100.957 86.1708 93.4709 82.5841 87.9653C81.9035 86.919 81.0717 85.9507 80.0454 85.2431C78.4438 84.1415 76.4452 83.7339 74.5006 83.7617C70.7681 83.8147 67.2084 85.3674 64.0161 87.3082C60.1458 89.6646 56.5672 92.733 54.4633 96.7478C53.121 99.3105 52.4539 102.281 52.7375 105.17C53.04 108.238 52.1568 111.018 53.8475 113.473C55.0413 115.203 58.2958 115.657 60.5185 115.833C63.5326 116.071 66.7385 115.561 69.6418 114.782C73.0638 113.864 76.3317 112.369 79.2378 110.344Z" fill="#CCCCCC"/>
<path d="M40.6389 100.701C41.2557 105.657 43.9658 110.34 47.9202 113.285C49.0015 114.09 50.1791 114.774 51.4473 115.177C54.6754 116.203 58.1385 115.328 61.2518 114.1C65.9618 112.244 70.4235 109.522 73.7183 105.606C75.2376 103.799 76.4845 101.769 77.6887 99.722C78.8929 97.677 80.0757 95.5698 80.6151 93.2311C81.1598 90.8766 81.0263 88.3823 80.527 85.9947C79.8942 82.9716 78.5592 79.9085 76.0707 78.1556C73.3632 76.2498 69.9028 74.3225 66.7201 74.8819C61.2465 75.8428 49.9094 77.7199 42.8684 89.4052C40.8766 92.7064 40.1503 96.7932 40.6389 100.701Z" fill="#E8E8E8"/>
<path d="M61.8702 63.3546C66.1753 66.1064 69.9855 69.6348 73.4471 73.4577C75.6875 75.9333 77.8506 78.6502 78.7447 81.8926C79.6413 85.1347 78.9575 89.0245 76.3393 90.954C73.4498 93.0858 69.1633 92.1157 66.4067 89.6851C64.5974 88.0889 63.299 85.9949 62.2507 83.8179C61.2183 81.6757 61.1252 80.0434 60.8458 77.754C60.5478 75.3 60.4201 72.8633 60.601 70.403C60.6462 69.7652 61.8675 63.3514 61.8702 63.3546Z" fill="#E8E8E8"/>
<path d="M63.0828 67.3864C67.2801 69.3276 70.8198 72.6613 73.0075 76.7357C71.1289 76.0438 69.1639 75.5934 67.17 75.399C65.8993 75.2753 64.5028 75.2916 63.502 76.0823C63.4443 75.578 63.0592 75.0563 62.9858 74.3997C62.8994 73.5961 62.8443 72.7892 62.8234 71.9811C62.8155 71.5585 63.1535 67.4196 63.0828 67.3864Z" fill="#E5CAC6"/>
<path d="M39.2043 99.2577C39.2627 95.9351 40.3814 92.6393 42.3538 89.9656C42.2005 90.1759 37.1712 88.3322 36.6264 88.1698C36.2543 88.0579 34.6079 87.3315 34.3574 87.6705C34.1774 87.9154 34.7538 89.0242 34.8316 89.3065C35.8166 92.9297 36.9134 96.208 39.2043 99.2577Z" fill="#E5CAC6"/>
<path d="M44.9663 99.1104C45.1014 99.3886 45.2716 99.6561 45.4742 99.907C46.9379 101.72 49.5951 102.002 51.4091 100.537C52.6176 99.5598 53.1455 98.051 52.9279 96.6166C53.7761 98.3458 53.3507 100.492 51.7894 101.754C49.9754 103.219 47.3208 102.936 45.8545 101.124C45.3691 100.521 45.0739 99.825 44.9663 99.1104Z" fill="#E9F1F4"/>
<path d="M45.9012 101.264C47.3655 103.077 50.0237 103.359 51.8358 101.894C53.648 100.43 53.9309 97.7732 52.4641 95.9605C51.0024 94.148 48.3442 93.866 46.532 95.3305C44.7198 96.795 44.4369 99.4517 45.9012 101.264Z" fill="white"/>
<path d="M46.0076 101.178C47.4224 102.928 49.9964 103.201 51.7467 101.787C53.4994 100.373 53.7698 97.798 52.3576 96.0478C50.9429 94.2973 48.3689 94.0241 46.6186 95.4383C44.8683 96.8526 44.5954 99.4271 46.0076 101.178ZM45.7923 101.351C44.2824 99.4824 44.5754 96.7331 46.4458 95.223C48.3113 93.7128 51.0606 94.0048 52.573 95.874C54.0829 97.743 53.7899 100.492 51.9219 102.002C50.054 103.513 47.3047 103.221 45.7923 101.351Z" fill="#E0BA99"/>
<path d="M46.9385 100.642C47.8981 101.828 49.6352 102.013 50.8216 101.054C52.008 100.096 52.1924 98.3574 51.2328 97.1713C50.2758 95.9849 48.5386 95.8005 47.3498 96.7588C46.1634 97.7171 45.979 99.4558 46.9385 100.642Z" fill="#6B8C96"/>
<path d="M50.5875 100.856C49.8303 100.417 49.0905 99.927 48.4823 99.299C47.8716 98.6706 47.39 97.8919 47.2311 97.0309C47.2212 97.0401 47.6135 97.0774 47.6433 97.0846C47.8468 97.135 48.0603 97.3425 48.2217 97.4679C48.5916 97.7531 48.9317 98.0761 49.2345 98.4296C49.5374 98.7831 49.808 99.1671 50.0339 99.574C50.1531 99.785 50.2598 100.002 50.3541 100.224C50.3988 100.33 50.5006 100.806 50.5875 100.856Z" fill="#30211F"/>
<path d="M50.9658 97.5838C51.0105 97.6646 51.0503 97.7493 51.0652 97.8408C51.0752 97.9325 51.0553 98.0324 50.9907 98.0978C50.8912 98.195 50.7272 98.188 50.6054 98.1239C50.4836 98.0598 50.3942 97.9509 50.2972 97.8527C50.0412 97.59 49.7255 97.3872 49.3801 97.2647C48.796 97.0574 49.4845 96.6497 49.8324 96.7447C50.2972 96.8719 50.7297 97.1608 50.9658 97.5838Z" fill="white"/>
<path d="M48.7678 97.0685C48.6936 97.1491 48.5799 97.1828 48.4711 97.1788C48.3623 97.1751 48.2561 97.1383 48.1547 97.0955C48.1053 97.0735 48.0434 97.0352 48.0484 96.9781C48.0484 96.9578 48.0607 96.9392 48.0731 96.9224C48.1745 96.7706 48.4588 96.626 48.6491 96.671C48.8296 96.7138 48.8988 96.9256 48.7678 97.0685Z" fill="white"/>
<path d="M61.0801 84.6164C61.2179 84.8947 61.387 85.1618 61.5873 85.4131C63.0516 87.2257 65.7097 87.5078 67.5226 86.0433C68.732 85.0656 69.26 83.5568 69.0415 82.1224C69.8894 83.8517 69.4654 85.998 67.9023 87.2597C66.092 88.7243 63.4339 88.4421 61.9696 86.6298C61.4832 86.0269 61.1867 85.3309 61.0801 84.6164Z" fill="#E9F1F4"/>
<path d="M62.0148 86.7702C63.4796 88.5829 66.1361 88.865 67.9496 87.4004C69.7631 85.9358 70.0441 83.279 68.5793 81.4666C67.1144 79.6538 64.4579 79.3718 62.6444 80.8364C60.8335 82.301 60.5499 84.9577 62.0148 86.7702Z" fill="white"/>
<path d="M62.1223 86.6837C63.5357 88.4341 66.1124 88.7074 67.8615 87.293C69.6132 85.8787 69.8865 83.3043 68.4706 81.5539C67.0573 79.8035 64.4831 79.5299 62.7314 80.9443C60.9823 82.3587 60.709 84.9331 62.1223 86.6837ZM61.9063 86.8576C60.3967 84.9885 60.6882 82.2392 62.557 80.7291C64.4284 79.2189 67.177 79.5109 68.6866 81.3798C70.1962 83.2488 69.9047 85.9982 68.0359 87.5083C66.1671 89.0184 63.4159 88.7264 61.9063 86.8576Z" fill="#E0BA99"/>
<path d="M63.0533 86.1464C64.0121 87.3326 65.7508 87.5174 66.9376 86.5589C68.1243 85.6004 68.3083 83.8619 67.3496 82.6757C66.3934 81.4894 64.6521 81.3049 63.4679 82.2634C62.2812 83.2216 62.0972 84.9604 63.0533 86.1464Z" fill="#6B8C96"/>
<path d="M66.7009 86.3618C65.942 85.9225 65.2038 85.4331 64.5946 84.8048C63.9854 84.1765 63.5052 83.3977 63.3452 82.5368C63.3348 82.5461 63.7298 82.5832 63.7582 82.5905C63.9595 82.6408 64.1738 82.8483 64.3364 82.9738C64.7056 83.259 65.0437 83.5822 65.3483 83.9356C65.6529 84.289 65.9214 84.6731 66.1485 85.0799C66.2673 85.2911 66.3731 85.5082 66.4686 85.7302C66.5125 85.8363 66.6157 86.3123 66.7009 86.3618Z" fill="#30211F"/>
<path d="M67.0802 83.0892C67.1242 83.1699 67.1681 83.2549 67.1784 83.3464C67.1913 83.4379 67.1681 83.5376 67.1035 83.6033C67.0078 83.7007 66.8425 83.6935 66.721 83.6294C66.5995 83.565 66.5091 83.4565 66.4135 83.3583C66.1576 83.0957 65.8397 82.8928 65.4934 82.7698C64.9119 82.5628 65.5994 82.1553 65.9457 82.2501C66.4134 82.3775 66.845 82.6662 67.0802 83.0892Z" fill="white"/>
<path d="M64.8839 82.574C64.8119 82.6545 64.6936 82.6882 64.5882 82.6846C64.4777 82.6804 64.3723 82.6437 64.272 82.601C64.218 82.5789 64.1563 82.5406 64.1614 82.4835C64.164 82.4629 64.1743 82.4449 64.1871 82.428C64.29 82.2763 64.5754 82.1315 64.7631 82.1765C64.943 82.2192 65.015 82.431 64.8839 82.574Z" fill="white"/>
<path d="M59.2646 95.2014C59.0878 95.4161 58.9622 95.6952 59.016 95.9682C59.0544 96.1748 59.1928 96.3498 59.3466 96.4898C59.8361 96.925 60.5153 97.0757 61.1689 97.1279C61.8199 97.1802 62.4837 97.1513 63.1219 97.2976C63.3653 96.5428 63.5396 95.7642 63.6344 94.9763C63.6755 94.6429 63.7011 94.3008 63.6242 93.974C63.5447 93.6472 63.3423 93.2358 63.0373 93.0936C62.7015 92.9367 61.6302 92.9134 61.1971 93.7405C61.051 94.017 60.9049 94.2679 60.9151 94.5729C60.3257 94.4527 59.6439 94.7398 59.2646 95.2014Z" fill="#593E39"/>
<path d="M68.5529 98.1893C68.4881 98.1401 68.4051 98.1582 68.3559 98.215C67.8035 98.8301 67.0333 99.3044 66.1931 99.3568C65.2752 99.4141 64.4557 98.8786 63.8722 98.2127C63.8282 98.1629 63.7841 98.1123 63.7452 98.0612C63.727 98.0304 63.7141 97.9995 63.6985 97.9689C63.4003 97.3707 63.045 96.8025 62.6327 96.2756C62.5212 96.133 62.2956 96.3018 62.4097 96.4447C62.4693 96.5245 62.5316 96.6057 62.5912 96.6876C62.5549 96.7366 62.5575 96.802 62.5912 96.8559C62.8713 97.3165 63.1617 97.7835 63.5014 98.2036C63.6933 98.6037 63.8593 99.0168 63.9915 99.4406C64.0693 99.6848 64.129 99.94 64.1264 100.197C64.1212 100.445 64.0616 100.691 63.9863 100.925C63.8282 101.41 63.5922 101.867 63.2862 102.277C62.9465 102.738 62.5238 103.133 62.0415 103.445C61.9766 103.486 61.9714 103.584 62.0155 103.642C62.0622 103.706 62.1478 103.711 62.21 103.67C63.1099 103.089 63.8152 102.208 64.186 101.203C64.2794 100.949 64.3598 100.685 64.3935 100.416C64.4246 100.144 64.3961 99.8741 64.3287 99.6089C64.2612 99.3381 64.1731 99.0705 64.0719 98.8078C64.2664 98.9808 64.4765 99.1369 64.7099 99.2691C65.1274 99.5082 65.5967 99.6423 66.0791 99.641C66.5225 99.6397 66.9659 99.5178 67.3601 99.3226C67.8242 99.0938 68.234 98.771 68.5789 98.3864C68.6281 98.3302 68.61 98.2334 68.5529 98.1893Z" fill="#593E39"/>
<path d="M63.13 90.1919C63.3733 89.4971 62.9354 88.7329 62.3694 88.2619C61.8035 87.7907 61.1043 87.496 60.5486 87.0135C59.5729 86.1686 59.1375 84.7501 59.4679 83.5032C59.7445 82.4673 60.4948 81.5779 60.6178 80.513C60.7279 79.5481 60.3028 78.6031 59.7983 77.7744C59.5703 77.4043 59.3219 77.0432 59.0479 76.7044C56.2206 77.6366 53.1398 79.0382 50.1921 81.2498C50.7248 82.1315 50.7504 83.3895 50.4303 84.397C50.2178 85.0684 49.8464 85.6825 49.6518 86.3591C49.3214 87.5098 49.5442 88.8074 50.2434 89.7806C50.9399 90.7535 52.0975 91.3812 53.296 91.4349C55.1194 91.5171 56.8608 90.3481 58.6766 90.5701C59.4909 90.6697 60.2516 91.0464 61.0659 91.1509C61.8803 91.2552 62.856 90.9663 63.13 90.1919Z" fill="#494C56"/>
<path d="M67.8622 93.3867C69.3304 91.1887 71.1105 89.2063 73.1272 87.4964C75.1413 85.7867 77.392 84.3546 79.7906 83.2518C81.1539 82.6269 82.5629 82.1138 84.0042 81.7129C84.2462 81.6457 84.144 81.2671 83.8993 81.3348C81.3125 82.0542 78.8252 83.1418 76.5369 84.5458C74.2485 85.9494 72.1484 87.6669 70.3226 89.6379C69.2981 90.7453 68.3596 91.9341 67.5234 93.1885C67.3808 93.399 67.7224 93.5956 67.8622 93.3867Z" fill="#593E39"/>
<path d="M69.0721 94.5083C71.1095 92.7845 73.3747 91.334 75.7863 90.1876C78.1953 89.0417 80.7535 88.2051 83.3768 87.7024C84.8607 87.4178 86.3636 87.2445 87.8746 87.1818C88.1242 87.1715 88.1269 86.779 87.8746 86.7898C85.1618 86.9027 82.4653 87.3709 79.8718 88.1749C77.2811 88.9785 74.788 90.1122 72.4849 91.5445C71.1909 92.3483 69.9565 93.2479 68.7955 94.231C68.6029 94.3943 68.8795 94.6705 69.0721 94.5083Z" fill="#593E39"/>
<path d="M69.2766 96.2256C73.7151 94.5586 78.5003 93.8582 83.2341 94.1725C84.5863 94.2622 85.9303 94.4367 87.2634 94.6925C87.51 94.7399 87.6157 94.3622 87.3691 94.3142C82.6353 93.4043 77.72 93.5238 73.0349 94.6583C71.7235 94.9756 70.4336 95.3737 69.1709 95.8476C68.9379 95.9354 69.0409 96.3145 69.2766 96.2256Z" fill="#593E39"/>
<path d="M55.7049 101.453C54.9098 101.658 54.1802 102.035 53.4732 102.442C52.7838 102.839 52.1019 103.247 51.4201 103.656C50.0489 104.477 48.6977 105.325 47.397 106.251C44.8205 108.085 42.4982 110.246 40.7748 112.913C39.8162 114.394 39.0488 115.996 38.4852 117.667C38.4021 117.906 38.7821 118.009 38.8626 117.771C39.8539 114.834 41.5019 112.139 43.6607 109.914C45.8295 107.68 48.4285 105.93 51.0779 104.32C51.8252 103.866 52.5749 103.422 53.3298 102.98C54.1173 102.517 54.9174 102.061 55.808 101.831C56.0521 101.768 55.9489 101.39 55.7049 101.453Z" fill="#593E39"/>
<path d="M57.5674 103.182C56.1748 103.681 54.9945 104.586 53.9558 105.619C52.8286 106.739 51.8075 107.981 50.8142 109.22C49.7906 110.5 48.8353 111.834 48.0214 113.258C47.2405 114.622 46.5783 116.055 46.0399 117.531C45.4283 119.215 44.981 120.956 44.708 122.726C44.6701 122.973 45.0467 123.079 45.0871 122.831C45.5597 119.76 46.5555 116.777 48.0341 114.043C48.7948 112.632 49.6845 111.3 50.6676 110.034C51.6407 108.783 52.6618 107.553 53.746 106.397C54.8581 105.214 56.1218 104.116 57.6711 103.56C57.9061 103.476 57.805 103.097 57.5674 103.182Z" fill="#593E39"/>
<path d="M58.4283 105.04C56.5789 106.832 55.1196 109 54.0632 111.343C52.913 113.892 52.2417 116.628 51.9453 119.404C51.7705 121.049 51.7274 122.706 51.7857 124.358C51.7933 124.609 52.1859 124.61 52.1758 124.358C52.0745 121.48 52.2847 118.584 52.9612 115.78C53.5743 113.252 54.5674 110.815 55.9861 108.631C56.7689 107.43 57.6759 106.315 58.7044 105.317C58.8868 105.141 58.6107 104.864 58.4283 105.04Z" fill="#593E39"/>
<path d="M80.1492 107.153C75.7841 111.669 71.7282 116.51 66.9573 120.597C62.1863 124.683 56.5512 128.038 50.3334 128.915C49.7205 129.001 49.033 129.106 48.6769 129.61C48.3235 130.115 48.8011 131.049 49.3616 130.792C48.7597 131.003 48.4477 131.789 48.7376 132.355C49.0247 132.921 49.8475 133.127 50.3693 132.765C49.9055 133.111 49.7122 133.777 49.9193 134.317C50.7283 134.797 51.7471 134.649 52.672 134.475C60.5187 133.004 68.2825 130.84 75.4528 127.336C82.6258 123.831 89.2079 118.938 94.0507 112.594C94.9728 111.389 95.8591 110.041 95.9171 108.526C95.9778 106.824 94.9314 105.217 93.5288 104.254C88.606 100.88 83.8268 103.35 80.1492 107.153Z" fill="#E8E8E8"/>
<path d="M93.7399 104.367V104.366C94.4277 105.171 94.8834 106.158 94.9166 107.211C94.9663 108.727 94.1708 110.132 93.3366 111.398C88.9362 118.058 82.7045 123.39 75.7905 127.377C75.738 127.407 75.6855 127.436 75.6331 127.466L75.6662 127.449C82.8399 123.945 89.4196 119.052 94.2647 112.708C95.1845 111.503 96.074 110.155 96.1293 108.639C96.1928 106.938 95.1459 105.33 93.7399 104.367Z" fill="#D8D8D8"/>
<path d="M123.453 69.8904C124.012 75.0542 125.486 80.1304 127.803 84.8703C128.052 85.3767 128.312 85.9461 128.096 86.4672C127.963 86.7815 127.679 87.0206 127.401 87.2476C126.244 88.1975 123.838 91.1551 122.305 89.5825C121.115 88.3579 121.21 84.5217 121.124 82.9512C121.003 80.7367 121.139 78.5092 121.527 76.3158C121.725 75.1927 121.991 74.0785 122.326 72.98C122.565 72.183 123.539 70.6649 123.453 69.8904Z" fill="#D8D8D8"/>
<path d="M128.842 61.8969C125.311 65.0122 123.479 69.7379 123.125 74.4348C122.768 79.1319 123.758 83.8328 125.122 88.3421C126.482 92.8511 128.22 97.2448 129.428 101.798C131.673 110.263 132.03 119.234 130.372 127.833C130.233 128.554 129.925 129.465 130.714 129.68C131.357 129.802 131.621 129.372 131.692 128.899C131.652 130.651 133.648 130.745 133.779 128.848C133.083 129.432 134.139 130.635 134.999 130.341C135.856 130.047 136.232 129.058 136.443 128.176C137.083 125.521 137.232 122.777 137.536 120.064C138.536 111.177 142.358 95.6091 145.699 87.3143C152.077 71.4781 147.42 50.6885 142.507 50.655C137.356 50.6196 133.229 58.031 128.842 61.8969Z" fill="#E8E8E8"/>
<path d="M75.3954 127.365C77.5988 126.289 79.746 125.081 81.8023 123.741C81.0563 123.31 80.1445 123.146 79.2701 123.06C76.5479 122.79 73.7723 123.053 71.1491 123.83C69.5126 124.315 67.8039 125.005 66.1514 124.577C65.1861 124.327 64.3545 123.717 63.44 123.332C59.4798 126.136 55.0489 128.27 50.2758 128.944C49.6635 129.03 48.9736 129.135 48.6206 129.64C48.265 130.144 48.7436 131.078 49.3025 130.821C48.7035 131.032 48.3907 131.819 48.6794 132.384C48.9682 132.95 49.7892 133.156 50.3106 132.794C49.848 133.14 49.6555 133.806 49.8614 134.346C50.6716 134.827 51.6904 134.678 52.6156 134.504C60.4611 133.033 68.2238 130.869 75.3954 127.365Z" fill="#494C56"/>
<path d="M117.98 52.124C117.607 52.4305 117.197 52.8007 117.191 53.2842C117.176 54.4309 119.01 54.3674 119.841 55.1599C120.532 55.8204 120.348 57.0218 119.749 57.7676C119.15 58.513 118.258 58.9458 117.457 59.466C115.07 61.0131 113.334 63.5279 112.729 66.3068C112.548 67.1359 112.487 68.0788 112.998 68.7574C113.854 69.9001 115.651 69.5599 116.934 68.9355C120.049 67.4226 122.659 64.9277 125.926 63.792C129.196 62.6562 133.689 63.6263 134.625 66.9581C134.97 68.1898 134.759 69.501 134.545 70.7626C134.276 72.3559 134.007 73.9489 133.735 75.5422C133.338 77.9029 133.393 81.0705 135.673 81.8037C137.873 82.5122 139.768 80.1389 140.777 78.0591C142.62 74.2689 144.127 69.8836 142.721 65.91C142.155 64.3076 141.135 62.8604 140.829 61.1886C140.484 59.3052 141.083 57.3831 141.083 55.4683C141.083 53.5532 140.102 51.3248 138.2 51.0775C137.348 50.9663 136.51 51.2866 135.664 51.4424C132.079 52.1051 130.016 49.6679 126.895 48.88C123.429 48.0056 120.541 50.0264 117.98 52.124Z" fill="#494C56"/>
<path d="M36.6919 125.814C36.8838 130.728 33.0559 134.868 28.1415 135.061C23.2271 135.253 19.0875 131.426 18.8956 126.511C18.7037 121.597 22.5316 117.458 27.446 117.265C32.358 117.072 36.5001 120.9 36.6919 125.814Z" fill="#6784B2"/>
<path d="M19.144 128.489C22.6851 126.521 25.9332 124.012 28.7297 121.083C29.5193 120.257 30.2686 119.396 30.9849 118.505C31.1953 118.245 31.2591 117.852 30.9849 117.601C30.7532 117.388 30.3041 117.323 30.0819 117.601C28.829 119.161 27.4626 120.625 25.9899 121.979C25.2594 122.652 24.503 123.298 23.7229 123.914C23.3589 124.203 23.0137 124.464 22.5977 124.768C22.1934 125.063 21.7798 125.352 21.3613 125.632C20.4347 126.256 19.4797 126.841 18.4986 127.385C18.2055 127.547 18.0849 127.974 18.2693 128.26C18.4608 128.556 18.8319 128.663 19.144 128.489Z" fill="#516889"/>
<path d="M19.6181 130.981C20.7786 130.81 21.754 130.068 22.6677 129.383C23.5885 128.692 24.4856 127.971 25.3566 127.215C27.0677 125.73 28.6697 124.119 30.1435 122.399C31.0003 121.401 31.8119 120.365 32.5856 119.3C32.7826 119.028 32.6402 118.576 32.3554 118.425C32.0255 118.25 31.6909 118.365 31.482 118.655C30.2195 120.393 28.7955 122.085 27.2529 123.666C26.4887 124.453 25.6936 125.211 24.8748 125.941C24.4548 126.313 24.03 126.678 23.598 127.036C23.3987 127.199 23.1993 127.361 23 127.522C22.8908 127.609 22.7793 127.696 22.6701 127.782C22.6155 127.826 22.5585 127.869 22.504 127.912C22.4423 127.959 22.4304 127.969 22.4684 127.94C22.4304 127.969 22.3924 127.997 22.3568 128.026C21.8774 128.392 21.3956 128.761 20.8878 129.088C20.3419 129.438 19.9124 129.655 19.2763 129.748C18.9464 129.797 18.7328 130.234 18.8325 130.534C18.9488 130.897 19.2621 131.033 19.6181 130.981Z" fill="#516889"/>
<path d="M20.9949 132.852C22.1472 132.491 23.1588 131.844 24.1131 131.118C25.0698 130.386 26.0098 129.623 26.9427 128.859C28.7654 127.369 30.5476 125.818 32.1341 124.075C33.0455 123.074 33.8901 122.01 34.6368 120.882C34.8229 120.603 34.7012 120.162 34.4078 120.007C34.0881 119.838 33.7302 119.938 33.5322 120.237C32.2916 122.109 30.7504 123.782 29.0636 125.345C27.3864 126.9 25.5994 128.334 23.8029 129.75C22.8963 130.467 21.7655 131.27 20.6561 131.619C20.3388 131.719 20.1002 132.069 20.21 132.406C20.3149 132.726 20.6561 132.96 20.9949 132.852Z" fill="#516889"/>
<path d="M23.0772 134.102C26.8369 131.386 30.4577 128.466 33.8819 125.338C34.7949 124.505 35.6743 123.629 36.3477 122.586C36.5298 122.305 36.4148 121.868 36.1176 121.712C35.8013 121.543 35.4371 121.64 35.243 121.941C34.6967 122.786 33.9634 123.525 33.187 124.242C32.3675 124.999 31.5312 125.737 30.6877 126.466C28.9984 127.927 27.2227 129.382 25.4807 130.722C24.4766 131.496 23.4582 132.255 22.4302 132.998C22.1618 133.193 22.0013 133.563 22.2002 133.872C22.3751 134.141 22.7872 134.311 23.0772 134.102Z" fill="#516889"/>
<path d="M20.6494 120.073C20.3306 122.729 21.28 125.375 22.2931 127.785C22.7962 128.978 23.3795 130.114 24.1754 131.14C24.8673 132.028 25.6916 132.795 26.6079 133.446C27.6423 134.179 28.8089 134.732 30.0252 135.082C30.3464 135.175 30.7361 134.97 30.8116 134.636C30.8896 134.295 30.7101 133.948 30.3653 133.849C30.1149 133.777 29.8646 133.697 29.6213 133.606C29.5009 133.563 29.3852 133.517 29.2671 133.47C29.201 133.443 29.2647 133.469 29.2765 133.474C29.2482 133.462 29.2199 133.449 29.1915 133.437C29.123 133.408 29.0569 133.378 28.9908 133.347C28.5161 133.128 28.0556 132.874 27.6163 132.589C27.399 132.446 27.1841 132.295 26.9763 132.138C26.9172 132.094 26.9716 132.133 26.981 132.142C26.9574 132.123 26.9314 132.103 26.9054 132.084C26.8582 132.044 26.8086 132.005 26.759 131.965C26.6551 131.879 26.5535 131.79 26.452 131.7C26.0576 131.353 25.6939 130.978 25.3562 130.577C25.2759 130.482 25.1956 130.384 25.12 130.285C25.1743 130.357 25.0822 130.236 25.0657 130.215C25.0232 130.156 24.9783 130.097 24.9382 130.037C24.7752 129.81 24.6217 129.575 24.4777 129.336C24.1565 128.799 23.8778 128.237 23.6251 127.665C23.5047 127.393 23.4196 127.193 23.3039 126.899C23.1858 126.608 23.0725 126.316 22.9615 126.023C22.7371 125.425 22.5293 124.821 22.3545 124.207C21.9601 122.83 21.757 121.511 21.9294 120.073C21.9696 119.739 21.6059 119.419 21.2894 119.433C20.9092 119.45 20.6919 119.715 20.6494 120.073Z" fill="#516889"/>
<path d="M22.3996 118.332C22.1992 119.054 22.266 119.796 22.4139 120.521C22.5428 121.158 22.717 121.789 22.8911 122.415C23.2443 123.686 23.669 124.94 24.2416 126.13C24.8095 127.308 25.5515 128.408 26.4678 129.343C27.4222 130.314 28.565 131.09 29.7604 131.731C31.1109 132.454 32.6451 133.016 34.2008 132.834C34.5324 132.795 34.8569 132.568 34.8402 132.195C34.8259 131.881 34.5563 131.514 34.2008 131.555C33.5661 131.629 33.0507 131.588 32.4781 131.451C32.1679 131.377 31.8625 131.279 31.5595 131.165C31.3042 131.068 31.0751 130.965 30.7912 130.825C29.665 130.268 28.596 129.595 27.7013 128.76C26.7994 127.919 26.1432 127.015 25.5658 125.916C25.4251 125.651 25.2938 125.382 25.1721 125.108C25.1435 125.045 25.1173 124.982 25.0886 124.918C25.0743 124.886 25.0624 124.854 25.0481 124.823C25.0529 124.837 25.0719 124.883 25.0457 124.815C24.9837 124.666 24.924 124.515 24.8644 124.364C24.6448 123.788 24.4516 123.203 24.2774 122.612C24.0865 121.963 23.9123 121.308 23.7525 120.651C23.7095 120.471 23.669 120.29 23.6332 120.108C23.6141 120.023 23.5998 119.938 23.5855 119.852C23.5735 119.775 23.5735 119.765 23.564 119.656C23.5306 119.279 23.5449 118.991 23.6308 118.671C23.7215 118.349 23.521 117.962 23.1846 117.885C22.8482 117.808 22.4951 117.986 22.3996 118.332Z" fill="#516889"/>
<path d="M24.482 117.76C24.4868 119.013 24.8965 120.198 25.4308 121.318C25.9508 122.412 26.5426 123.509 27.2878 124.467C28.5793 126.125 30.4242 127.251 32.3866 127.943C33.5056 128.338 34.6677 128.575 35.8441 128.713C36.1772 128.752 36.4983 128.391 36.4863 128.074C36.4671 127.694 36.2012 127.476 35.8441 127.434C35.7842 127.427 35.7219 127.419 35.6596 127.412C35.4584 127.387 35.7866 127.432 35.583 127.402C35.4608 127.383 35.3362 127.365 35.214 127.344C34.9672 127.303 34.7204 127.256 34.476 127.203C34.004 127.102 33.5391 126.978 33.0839 126.83C32.8634 126.76 32.6478 126.684 32.4321 126.603C32.3147 126.558 32.1997 126.512 32.0847 126.465C31.9673 126.416 32.0392 126.446 32.0655 126.457C31.9889 126.424 31.9122 126.39 31.8355 126.356C31.4042 126.16 30.9825 125.938 30.5776 125.69C30.3691 125.561 30.1631 125.425 29.9642 125.282C29.8803 125.222 29.7989 125.162 29.7174 125.099C29.818 125.176 29.6575 125.051 29.6527 125.048C29.5904 124.996 29.5281 124.944 29.4658 124.891C29.1064 124.587 28.7709 124.255 28.4666 123.898C28.3924 123.812 28.3205 123.725 28.251 123.636C28.1791 123.544 28.3349 123.754 28.2175 123.594C28.1791 123.54 28.1384 123.487 28.1001 123.433C27.9275 123.189 27.767 122.936 27.6137 122.679C27.3237 122.194 27.053 121.696 26.7942 121.194C26.2335 120.113 25.7663 118.952 25.7591 117.76C25.7567 117.425 25.4668 117.104 25.1193 117.12C24.7767 117.135 24.4772 117.401 24.482 117.76Z" fill="#516889"/>
</g>
<defs>
<clipPath id="clip0">
<rect width="180" height="159.62" fill="white" transform="matrix(1 0 0 -1 0 159.62)"/>
</clipPath>
</defs>
</svg>
